<svg width="179" height="41" xmlns="http://www.w3.org/2000/svg"><defs><linearGradient x1=".08%" y1="100%" x2="84.97%" y2="20.02%" id="a"><stop stop-color="#08CECA" offset="0%"/><stop stop-color="#009EE0" offset="100%"/></linearGradient><linearGradient x1="-11.17%" y1="59.44%" x2="87.8%" y2="44.28%" id="b"><stop stop-color="#07C5CE" offset="0%"/><stop stop-color="#009EE0" offset="100%"/></linearGradient></defs><g fill="none" fill-rule="evenodd"><g fill-rule="nonzero"><path d="M68.14 0a20.14 20.14 0 1 0 .01 40.29A20.14 20.14 0 0 0 68.14 0Zm-.96 21.02c0 .66-.1 1.3-.29 1.89a4.14 4.14 0 0 1-2.38 2.61 5.4 5.4 0 0 1-2.13.39c-.83 0-1.55-.13-2.15-.4a4.04 4.04 0 0 1-2.36-2.6 6.16 6.16 0 0 1-.28-1.9v-1.53c0-.7.1-1.35.28-1.96.2-.62.48-1.16.87-1.63.39-.46.88-.83 1.49-1.1a5.3 5.3 0 0 1 2.15-.4c.82 0 1.53.14 2.14.4.6.27 1.1.64 1.5 1.1.39.47.68 1.01.87 1.63.2.61.29 1.27.29 1.96v1.54Zm11.13 4.57c-.24.21-.74.32-1.11.32-.38 0-.8-.1-1.03-.32-.23-.22-.39-.37-.39-.63l.03-5.77c0-.94 0-1.26-.42-1.64-.43-.39-1.5-.28-1.5-.28s-1.17.04-1.44.28c-.43.38-.47.81-.47 1.63v5.78c0 .26-.22.49-.44.7-.23.22-.63.25-1 .25-.4 0-.85-.1-1.1-.32a.96.96 0 0 1-.35-.72v-5.6c0-.7.1-1.34.3-1.94a4.13 4.13 0 0 1 2.4-2.57 5.5 5.5 0 0 1 2.1-.37c.79 0 1.48.11 2.08.33a3.88 3.88 0 0 1 2.4 2.41c.21.58.31 1.22.31 1.91v5.83c0 .26-.12.5-.37.72ZM64.3 19.55c0-.75-.17-1.32-.51-1.7a1.78 1.78 0 0 0-1.4-.58c-.6 0-1.08.2-1.42.58-.34.38-.5.95-.5 1.7v1.34c0 .68.16 1.2.5 1.58.34.37.81.56 1.41.56.6 0 1.07-.19 1.4-.56.35-.37.52-.9.52-1.58v-1.34Z" fill="url(#a)"/><path d="M113.95 16.44v-2.27c0-.27.11-.5.35-.72.23-.21.55-.32.96-.32.38 0 .68.1.9.32.23.22.35.45.35.72v2.27h1.61c.25 0 .47.1.66.28.19.19.28.42.28.72 0 .32-.1.58-.28.76a.91.91 0 0 1-.66.28h-1.61v5.34c0 .62.08 1.04.24 1.26.16.22.39.33.7.33.29 0 .53-.02.74-.08.2-.05.44-.07.7-.07.33 0 .58.09.73.27.15.19.23.44.23.77 0 .28-.07.5-.22.68-.14.18-.34.32-.58.43-.24.11-.52.19-.83.23a7.3 7.3 0 0 1-1 .07c-1.13 0-1.96-.3-2.48-.9-.53-.6-.8-1.62-.8-3.08v-5.25h-.87a.9.9 0 0 1-.65-.28c-.2-.18-.08-.44-.08-.76 0-.3-.11-.53.08-.72a.9.9 0 0 1 .65-.28h.88Zm-2.87 5.89c-.25.27-.68.4-1.28.4h-5.07v.56c0 .69.21 1.24.63 1.65.42.42 1.02.63 1.79.63.38 0 .74-.03 1.06-.08.32-.05.57-.12.75-.2l.58-.3c.19-.1.36-.15.52-.15.28 0 .5.08.66.25.16.18.24.4.26.67 0 .23-.1.46-.3.68-.2.23-.47.44-.82.63a5.88 5.88 0 0 1-4.69.3 5 5 0 0 1-1.54-.93 4.1 4.1 0 0 1-1.38-3.02v-2.27c0-.63.12-1.22.35-1.78.24-.56.37-1.25.79-1.67.4-.41.77-.74 1.34-.98a6.1 6.1 0 0 1 2.13-.44c.81 0 1.53.17 2.1.44.58.26 1.09.85 1.45 1.27.36.42.63.89.8 1.4.17.52.26 1.02.26 1.52 0 .68-.13 1.15-.39 1.42Zm-4.22-4.05c-.62 0-1.1.23-1.47.7-.36.47-.57 1.1-.63 1.87h4.2v-.37c0-.68-.2-1.21-.6-1.6-.38-.4-.88-.6-1.5-.6Zm-10.9-1.75c.76 0 1.43.11 2 .32a3.77 3.77 0 0 1 2.31 2.34c.2.56.3 1.17.3 1.84v5.64c0 .26-.11.5-.35.7-.24.2-.53.3-.9.3-.35 0-.64-.1-.86-.3a.93.93 0 0 1-.34-.7v-5.5c0-.8-.2-1.37-.61-1.74-.4-.37-.92-.56-1.55-.56-.62 0-1.14.19-1.55.56-.42.37-.63.95-.63 1.73v5.51c0 .26-.1.5-.32.7-.21.2-.5.3-.86.3-.37 0-.67-.1-.9-.3a.92.92 0 0 1-.35-.7v-5.42c0-.67.1-1.3.3-1.88a4 4 0 0 1 2.31-2.49 5.26 5.26 0 0 1 2-.35Zm-56.17-.38c.6 0 1.14.13 1.6.37.47.24.85.54 1.14.88l.16-.03v-4.05c0-.27.11-.51.34-.73.23-.21.53-.32.9-.32.41 0 .74.11.97.32.24.22.36.46.36.73v9.55c0 .7-.1 1.34-.31 1.93-.21.6-.51 1.1-.92 1.53-.4.43-.92.77-1.53 1.01-.61.25-1.33.37-2.14.37-.87 0-1.62-.14-2.27-.4a4.5 4.5 0 0 1-2.57-2.7 5.93 5.93 0 0 1-.32-1.96v-1.44c0-.7.09-1.35.27-1.96.17-.62.45-1.15.82-1.61.37-.46.84-.82 1.41-1.09.58-.26 1.27-.4 2.09-.4Zm.53 9.25c.62 0 1.14-.18 1.57-.54.43-.36.64-.94.64-1.73v-2.08c-.03-.76-.26-1.32-.68-1.67a2.32 2.32 0 0 0-1.53-.53c-.72 0-1.3.22-1.75.67a2.46 2.46 0 0 0-.66 1.81v1.58c0 .77.22 1.37.66 1.82.44.44 1.03.67 1.75.67Zm-11.4 2.3c-.77 0-1.44-.11-2.01-.35a3.99 3.99 0 0 1-2.31-2.49c-.2-.58-.3-1.2-.3-1.88v-5.4c0-.27.12-.5.35-.7.23-.21.53-.32.9-.32.36 0 .65.1.86.31.22.21.32.44.32.7v5.5c0 .79.21 1.37.63 1.74.41.37.93.56 1.56.56a2.2 2.2 0 0 0 1.54-.56c.41-.37.61-.95.61-1.74v-5.5c0-.26.12-.49.34-.7.22-.2.5-.3.87-.3.36 0 .66.1.9.3.23.21.34.44.34.7v5.41c0 .68-.1 1.3-.28 1.88a4 4 0 0 1-2.32 2.5c-.58.23-1.24.35-2 .35Zm-8.8-13.58c0-.25.11-.48.35-.68.24-.2.55-.3.93-.3s.67.1.9.3c.22.2.33.43.33.68v12.6c0 .25-.11.48-.33.68-.23.2-.52.3-.9.3s-.7-.1-.93-.3c-.24-.2-.36-.43-.36-.69V14.12ZM17.2 27.71c-.35 0-.63-.1-.84-.31a.94.94 0 0 1-.32-.69v-.34l-.2-.06c-.12.18-.25.35-.4.5-.14.16-.32.3-.52.42-.21.12-.46.21-.74.28a4.89 4.89 0 0 1-2.79-.28c-.5-.25-.9-.57-1.22-.97a4.1 4.1 0 0 1-.71-1.35 5.25 5.25 0 0 1-.24-1.58v-1.86a5.22 5.22 0 0 1 1.22-3.34c.4-.46.9-.84 1.51-1.13a4.9 4.9 0 0 1 2.14-.44c.76 0 1.41.1 1.97.32a3.48 3.48 0 0 1 2.13 2.2c.17.52.25 1.08.25 1.69v5.94c0 .25-.11.48-.33.69-.22.2-.53.3-.91.3Zm-1.36-6.98c0-.72-.17-1.23-.51-1.53-.34-.29-.83-.44-1.46-.44a2.32 2.32 0 0 0-2.24 1.58c-.11.3-.17.63-.17.97v2.08a1.92 1.92 0 0 0 1.97 1.9 2.49 2.49 0 0 0 1.66-.64c.22-.2.4-.47.54-.79.14-.31.21-.68.21-1.1v-2.03ZM.1 26.16a1.08 1.08 0 0 1-.05-.7c.03-.13.08-.25.16-.37.07-.11.18-.2.31-.26.2-.08.36-.12.5-.12s.27.02.38.07c.1.05.2.12.3.2l.29.22c.39.31 1 .47 1.84.47.44 0 .79-.1 1.05-.3.27-.2.4-.46.4-.8a.94.94 0 0 0-.37-.77c-.24-.2-.55-.36-.92-.5a31.5 31.5 0 0 0-1.2-.4 5.1 5.1 0 0 1-1.2-.56 3.04 3.04 0 0 1-.92-.91 2.7 2.7 0 0 1-.37-1.5c0-1 .33-1.81 1-2.44a3.85 3.85 0 0 1 2.74-.93c.51 0 .96.05 1.34.14.38.1.7.2.94.33.26.13.45.27.6.42a1.34 1.34 0 0 1 .4 1.12.8.8 0 0 1-.32.6c-.27.2-.52.25-.75.19a2.55 2.55 0 0 1-.63-.27c-.1-.06-.28-.14-.52-.25-.23-.1-.59-.16-1.06-.16-.44 0-.76.11-.99.34-.22.22-.33.5-.33.82 0 .27.12.48.35.63.24.15.54.29.9.41l1.17.39c.42.13.8.32 1.16.58.36.25.66.58.9 1 .23.4.35.94.35 1.6 0 1-.33 1.8-1 2.38-.66.59-1.56.88-2.72.88a6.27 6.27 0 0 1-2.32-.45c-.33-.14-.62-.3-.86-.5a2.03 2.03 0 0 1-.55-.6Z" fill="#153239"/></g><path d="M129.5 12v18" stroke="#979797" stroke-linecap="square"/><path d="M142.76 18.56a4.24 4.24 0 0 1 3.45-1.64c2.63 0 4.67 2.02 4.67 5.08s-2.06 5.16-4.67 5.16c-1.63 0-2.8-.74-3.45-1.6V27h-2.05V13.68h2.05v4.88Zm6.03 3.44c0-2.15-1.48-3.3-3.03-3.3-1.53 0-3 1.2-3 3.33 0 2.14 1.47 3.35 3 3.35 1.55 0 3.03-1.24 3.03-3.38Zm4.12 5V13.68h2.05V27h-2.05Zm14.2-4.97c0 3.12-2.3 5.13-5.15 5.13-2.82 0-4.96-2.01-4.96-5.13a4.9 4.9 0 0 1 5.05-5.11c2.83 0 5.06 2 5.06 5.11Zm-8.03 0c0 2.25 1.34 3.35 2.88 3.35 1.53 0 3.05-1.1 3.05-3.35s-1.46-3.33-3-3.33-2.93 1.08-2.93 3.33Zm9.38-.03c0-3.06 2.07-5.08 4.68-5.08a4.2 4.2 0 0 1 3.44 1.6v-1.44h2.07v10.08c0 2.7-1.75 4.74-4.84 4.74-2.65 0-4.61-1.32-4.86-3.51h2.03c.3 1.02 1.4 1.72 2.83 1.72 1.58 0 2.77-.97 2.77-2.95v-1.65a4.26 4.26 0 0 1-3.44 1.65c-2.6 0-4.68-2.1-4.68-5.16Zm8.12.03c0-2.12-1.46-3.33-3-3.33s-3.01 1.15-3.01 3.3c0 2.14 1.47 3.38 3 3.38 1.55 0 3.01-1.2 3.01-3.35Z" fill="url(#b)" fill-rule="nonzero"/></g></svg>